<svg xmlns="http://www.w3.org/2000/svg" xmlns:xlink="http://www.w3.org/1999/xlink" style="enable-background:new 0 0 256 256;" version="1.1" xml:space="preserve" width="256" height="256"><rect id="backgroundrect" width="100%" height="100%" x="0" y="0" fill="none" stroke="none"/><style type="text/css">
	.st0{fill:none;stroke:#FF0000;stroke-miterlimit:10;}
</style><g class="currentLayer"><title>Layer 1</title><g id="svg_1" class="" fill="#ffffff" fill-opacity="1"><path d="M196,118 h-6.6 c1,-6 1.6,-11.2 2,-15.2 c0.5,-4.7 -3.2,-8.8 -8,-8.8 H64.6 c-4.7,0 -8.4,4.1 -8,8.8 C59.2,129.1 71.3,206 124,206 c28.8,0 45.4,-22.9 55.1,-48 h8.9 c0,0 10,0 12,-6 l8,-18 C208,125.6 203.8,118 196,118 zM151.1,187.6 c-7.9,7 -16.8,10.4 -27.1,10.4 s-19.2,-3.4 -27.1,-10.4 c-6.9,-6.2 -13,-15.1 -18.1,-26.5 c-9.4,-21.4 -13,-46.2 -14.2,-59 h118.8 l0,0 c-1.3,12.9 -4.8,37.6 -14.2,59.1 C164.1,172.5 158,181.4 151.1,187.6 zM192.7,148.8 c0,0.1 -0.1,0.2 -0.1,0.2 c-0.8,0.5 -3,1 -4.6,1 h-3.5 l6.6,-24 h4.9 c2.5,0 3.6,3.5 3.9,6.5 L192.7,148.8 z" id="svg_2" fill="#ffffff" fill-opacity="1"/><path d="M112,76 c0,0.2 0,0.5 0.1,0.7000000000000001 c0.1,0.5 0.1,1 0.2,1.5 c0.2,0.9 0.4,1.7000000000000002 0.6000000000000001,2.5 c0.5,1.5 1,2.7 1.4,3.5 c0.2,0.4 0.4,0.7000000000000001 0.5,0.9 c0.1,0.2 0.2,0.30000000000000004 0.2,0.30000000000000004 c0.2,0.30000000000000004 0.6000000000000001,0.6000000000000001 1,0.5 c0.5,-0.1 0.9,-0.6000000000000001 0.8,-1.2 l0,-0.1 c0,0 -0.1,-0.5 -0.2,-1.3 c-0.1,-0.8 -0.30000000000000004,-2 -0.5,-3.4 c-0.1,-0.7000000000000001 -0.2,-1.4 -0.2,-2.2 c0,-0.4 0,-0.8 0,-1.1 c0,-0.2 0,-0.4 0,-0.7000000000000001 l0,-0.2 c0,0 0,-0.1 0,-0.1 l0,-0.2 c0.1,-0.6000000000000001 0.30000000000000004,-1.1 0.7000000000000001,-1.7000000000000002 c0.4,-0.6000000000000001 1,-1.2 1.7000000000000002,-2.2 c0.30000000000000004,-0.5 0.7000000000000001,-1 1,-1.7000000000000002 c0.1,-0.30000000000000004 0.2,-0.6000000000000001 0.30000000000000004,-1 c0.1,-0.30000000000000004 0.2,-0.7000000000000001 0.2,-1 c0,-0.2 0.1,-0.4 0.1,-0.5 l0,-0.4 l0,-0.4 l0,-0.1 l0,0 l0,0 l0,-0.1 l0,-0.2 c0,-0.5 -0.1,-1 -0.2,-1.5 c-0.30000000000000004,-2 -0.7000000000000001,-3.7 -1.1,-5.1 c-0.4,-1.5 -0.9,-2.6 -1.2,-3.5 c-0.30000000000000004,-0.8 -0.5,-1.3 -0.5,-1.3 l0,0 c-0.2,-0.4 -0.6000000000000001,-0.6000000000000001 -1,-0.6000000000000001 c-0.6000000000000001,0.1 -0.9,0.6000000000000001 -0.9,1.1 c0,0 0.1,0.5 0.2,1.3 c0.1,0.8 0.2,2.1 0.4,3.5 c0.2,1.4 0.30000000000000004,3.1 0.4,4.8 c0,0.4 0,0.9 0,1.3 c0,0.1 -0.1,1 -0.1,1.1 c-0.1,0.2 -0.2,0.5 -0.30000000000000004,0.8 c-0.1,0.30000000000000004 -0.30000000000000004,0.6000000000000001 -0.5,0.9 c-0.5,0.6000000000000001 -1.2,1.4 -1.9,2.4 c-0.7000000000000001,1.1 -1.1,2.5 -1.1,3.7 l0,0.5 c0,0.1 0,0.1 0,0.30000000000000004 L112,76 z" id="svg_3" fill="#ffffff" fill-opacity="1"/><path d="M120,75.8 l0,0.2 c0,0.2 0,0.5 0.1,0.7000000000000001 c0.1,0.5 0.1,1 0.2,1.5 c0.2,0.9 0.4,1.7000000000000002 0.6000000000000001,2.5 c0.5,1.5 1,2.7 1.4,3.5 c0.2,0.4 0.4,0.7000000000000001 0.5,0.9 c0.1,0.2 0.2,0.30000000000000004 0.2,0.30000000000000004 c0.2,0.30000000000000004 0.6000000000000001,0.6000000000000001 1,0.5 c0.5,-0.1 0.9,-0.6000000000000001 0.8,-1.2 l0,-0.1 c0,0 -0.1,-0.5 -0.2,-1.3 c-0.1,-0.8 -0.30000000000000004,-2 -0.5,-3.4 c-0.1,-0.7000000000000001 -0.2,-1.4 -0.2,-2.2 c0,-0.4 0,-0.8 0,-1.1 c0,-0.2 0,-0.4 0,-0.7000000000000001 l0,-0.2 c0,0 0,-0.1 0,-0.1 l0,-0.2 c0.1,-0.6000000000000001 0.30000000000000004,-1.1 0.7000000000000001,-1.7000000000000002 c0.4,-0.6000000000000001 1,-1.2 1.7000000000000002,-2.2 c0.30000000000000004,-0.5 0.7000000000000001,-1 1,-1.7000000000000002 c0.1,-0.30000000000000004 0.2,-0.6000000000000001 0.30000000000000004,-1 c0.1,-0.30000000000000004 0.2,-0.7000000000000001 0.2,-1 c0,-0.2 0.1,-0.4 0.1,-0.5 l0,-0.4 l0,-0.4 l0,-0.1 l0,0 l0,0 l0,-0.1 l0,-0.2 c0,-0.5 -0.1,-1 -0.2,-1.5 c-0.30000000000000004,-2 -0.7000000000000001,-3.7 -1.1,-5.1 c-0.4,-1.5 -0.9,-2.6 -1.2,-3.5 c-0.30000000000000004,-0.8 -0.5,-1.3 -0.5,-1.3 l0,0 c-0.2,-0.4 -0.6000000000000001,-0.6000000000000001 -1,-0.6000000000000001 c-0.6000000000000001,0.1 -0.9,0.6000000000000001 -0.9,1.1 c0,0 0.1,0.5 0.2,1.3 c0.1,0.8 0.2,2.1 0.4,3.5 c0.2,1.4 0.30000000000000004,3.1 0.4,4.8 c0,0.4 0,0.9 0,1.3 c0,0.1 -0.1,1 -0.1,1.1 c-0.1,0.2 -0.2,0.5 -0.30000000000000004,0.8 c-0.1,0.30000000000000004 -0.30000000000000004,0.6000000000000001 -0.5,0.9 c-0.5,0.6000000000000001 -1.2,1.4 -1.9,2.4 c-0.7000000000000001,1.1 -1.1,2.5 -1.1,3.7 l0,0.5 C120,75.7 120,75.7 120,75.8 z" id="svg_4" fill="#ffffff" fill-opacity="1"/><path d="M128,75.8 l0,0.2 c0,0.2 0,0.5 0.1,0.7000000000000001 c0.1,0.5 0.1,1 0.2,1.5 c0.2,0.9 0.4,1.7000000000000002 0.6000000000000001,2.5 c0.5,1.5 1,2.7 1.4,3.5 c0.2,0.4 0.4,0.7000000000000001 0.5,0.9 c0.1,0.2 0.2,0.30000000000000004 0.2,0.30000000000000004 c0.2,0.30000000000000004 0.6000000000000001,0.6000000000000001 1,0.5 c0.5,-0.1 0.9,-0.6000000000000001 0.8,-1.2 l0,-0.1 c0,0 -0.1,-0.5 -0.2,-1.3 c-0.1,-0.8 -0.30000000000000004,-2 -0.5,-3.4 c-0.1,-0.7000000000000001 -0.2,-1.4 -0.2,-2.2 c0,-0.4 0,-0.8 0,-1.1 c0,-0.2 0,-0.4 0,-0.7000000000000001 l0,-0.2 c0,0 0,-0.1 0,-0.1 l0,-0.2 c0.1,-0.6000000000000001 0.30000000000000004,-1.1 0.7000000000000001,-1.7000000000000002 c0.4,-0.6000000000000001 1,-1.2 1.7000000000000002,-2.2 c0.30000000000000004,-0.5 0.7000000000000001,-1 1,-1.7000000000000002 c0.1,-0.30000000000000004 0.2,-0.6000000000000001 0.30000000000000004,-1 c0.1,-0.30000000000000004 0.2,-0.7000000000000001 0.2,-1 c0,-0.2 0.1,-0.4 0.1,-0.5 l0,-0.4 l0,-0.4 l0,-0.1 l0,0 l0,0 l0,-0.1 l0,-0.2 c0,-0.5 -0.1,-1 -0.2,-1.5 c-0.30000000000000004,-2 -0.7000000000000001,-3.7 -1.1,-5.1 c-0.4,-1.5 -0.9,-2.6 -1.2,-3.5 c-0.30000000000000004,-0.8 -0.5,-1.3 -0.5,-1.3 l0,0 c-0.2,-0.4 -0.6000000000000001,-0.6000000000000001 -1,-0.6000000000000001 c-0.6000000000000001,0.1 -0.9,0.6000000000000001 -0.9,1.1 c0,0 0.1,0.5 0.2,1.3 c0.1,0.8 0.2,2.1 0.4,3.5 c0.2,1.4 0.30000000000000004,3.1 0.4,4.8 c0,0.4 0,0.9 0,1.3 c0,0.1 -0.1,1 -0.1,1.1 c-0.1,0.2 -0.2,0.5 -0.30000000000000004,0.8 c-0.1,0.30000000000000004 -0.30000000000000004,0.6000000000000001 -0.5,0.9 c-0.5,0.6000000000000001 -1.2,1.4 -1.9,2.4 c-0.7000000000000001,1.1 -1.1,2.5 -1.1,3.7 l0,0.5 C128,75.7 128,75.7 128,75.8 z" id="svg_5" fill="#ffffff" fill-opacity="1"/><path d="M162.1,142 H85.9 c-2.7,0 -4.7,2.7 -3.8,5.3 c0.8,2.2 1.6,4.4 2.4,6.6 c9.7,24.3 22.6,36.1 39.5,36.1 s29.8,-11.8 39.5,-36.1 c0.9,-2.2 1.7000000000000002,-4.4 2.4,-6.6 C166.8,144.7 164.9,142 162.1,142 z" id="svg_6" fill="#ffffff" fill-opacity="1"/></g></g></svg>