<svg xmlns="http://www.w3.org/2000/svg" xmlns:xlink="http://www.w3.org/1999/xlink" enable-background="new 0 0 32 32" height="28.33333336276774" version="1.1" width="26.777777817023633" xml:space="preserve"><rect id="backgroundrect" width="100%" height="100%" x="0" y="0" fill="none" stroke="none" class=""/><g class="currentLayer"><title>Layer 1</title><g id="svg_1"><polyline fill="none" points="   649,137.999 675,137.999 675,155.999 661,155.999  " stroke="#FFFFFF" stroke-linecap="round" stroke-linejoin="round" stroke-miterlimit="10" stroke-width="2" id="svg_2"/><polyline fill="none" points="   653,155.999 649,155.999 649,141.999  " stroke="#FFFFFF" stroke-linecap="round" stroke-linejoin="round" stroke-miterlimit="10" stroke-width="2" id="svg_3"/><polyline fill="none" points="   661,156 653,162 653,156  " stroke="#FFFFFF" stroke-linecap="round" stroke-linejoin="round" stroke-miterlimit="10" stroke-width="2" id="svg_4"/></g><g id="svg_5" class="selected" fill="#ffffff" fill-opacity="1"><path d="M22.407407477498055,11.14814817905426 h-1 v-3 c0,-0.552 -0.4470000000000007,-1 -1,-1 H1.407407477498055 c-0.552,0 -1,0.4480000000000007 -1,1 s0.4480000000000007,1 1,1 h18 v12 c0,2.757 -2.243,5 -5,5 h-7 c-2.757,0 -5,-2.243 -5,-5 v-9 c0,-0.552 -0.4480000000000007,-1 -1,-1 s-1,0.4480000000000007 -1,1 v9 c0,3.859 3.14,7 7,7 h7 c3.859,0 7,-3.141 7,-7 v-1 h1 c2.206,0 4,-1.794 4,-4 v-1 C26.407407477498055,12.94214817905426 24.613407477498054,11.14814817905426 22.407407477498055,11.14814817905426 zM24.407407477498055,16.14814817905426 c0,1.103 -0.8970000000000014,2 -2,2 h-1 v-5 h1 c1.103,0 2,0.8970000000000014 2,2 V16.14814817905426 z" id="svg_6" fill="#ffffff" fill-opacity="1"/><path d="M6.407407477498055,6.14814817905426 c0.552,0 1,-0.4480000000000007 1,-1 V3.1481481790542603 c0,-0.552 -0.4480000000000007,-1 -1,-1 S5.407407477498055,2.5961481790542607 5.407407477498055,3.1481481790542603 v2 C5.407407477498055,5.70014817905426 5.855407477498056,6.14814817905426 6.407407477498055,6.14814817905426 z" id="svg_7" fill="#ffffff" fill-opacity="1"/><path d="M10.407407477498055,6.14814817905426 c0.552,0 1,-0.4480000000000007 1,-1 V1.1481481790542603 c0,-0.552 -0.4480000000000007,-1 -1,-1 s-1,0.4480000000000007 -1,1 v4 C9.407407477498055,5.70014817905426 9.855407477498055,6.14814817905426 10.407407477498055,6.14814817905426 z" id="svg_8" fill="#ffffff" fill-opacity="1"/><path d="M14.407407477498055,6.14814817905426 c0.553,0 1,-0.4480000000000007 1,-1 V3.1481481790542603 c0,-0.552 -0.4470000000000007,-1 -1,-1 c-0.552,0 -1,0.4480000000000007 -1,1 v2 C13.407407477498055,5.70014817905426 13.855407477498055,6.14814817905426 14.407407477498055,6.14814817905426 z" id="svg_9" fill="#ffffff" fill-opacity="1"/></g></g></svg>