<svg xmlns="http://www.w3.org/2000/svg" xmlns:xlink="http://www.w3.org/1999/xlink" enable-background="new 0 0 32 32" height="21.481481552124023" version="1.1" width="32.11111068725586" xml:space="preserve"><rect id="backgroundrect" width="100%" height="100%" x="0" y="0" fill="none" stroke="none" class=""/><g class="currentLayer"><title>Layer 1</title><path d="M28,0.18518543243408203 H4 C1.791,0.18518543243408203 0,1.9771854324340818 0,4.185185432434082 v13 c0,2.209 1.791,4 4,4 h24 c2.209,0 4,-1.791 4,-4 V4.185185432434082 C32,1.9771854324340818 30.209,0.18518543243408203 28,0.18518543243408203 zM2,5.435185432434082 l6.999,5.25 L2,15.935185432434082 V5.435185432434082 zM30,17.185185432434082 c0,1.104 -0.8980000000000001,2 -2,2 H4 c-1.103,0 -2,-0.8960000000000001 -2,-2 l7.832,-5.875 l4.368,3.277 c0.533,0.3980000000000001 1.166,0.6000000000000001 1.8,0.6000000000000001 c0.6330000000000001,0 1.266,-0.201 1.799,-0.6000000000000001 l4.369,-3.277 L30,17.185185432434082 L30,17.185185432434082 zM30,15.935185432434082 l-7,-5.25 l7,-5.25 V15.935185432434082 zM17.199,13.787185432434082 c-0.3490000000000001,0.262 -0.7630000000000001,0.4 -1.199,0.4 c-0.43600000000000005,0 -0.8510000000000001,-0.139 -1.2,-0.4 L10.665000000000001,10.685185432434082 l-0.8330000000000001,-0.6250000000000001 L2,4.1861854324340815 V4.185185432434082 c0,-1.103 0.8970000000000001,-2 2,-2 h24 c1.102,0 2,0.8970000000000001 2,2 L17.199,13.787185432434082 z" fill="#ffffff" id="mail" class="selected" fill-opacity="1"/></g></svg>