<?xml version="1.0" ?><svg height="60px" version="1.1" viewBox="0 0 60 60" width="60px" xmlns="http://www.w3.org/2000/svg" xmlns:sketch="http://www.bohemiancoding.com/sketch/ns" xmlns:xlink="http://www.w3.org/1999/xlink"><title/><desc/><defs/><g fill="none" fill-rule="evenodd" id="soical" stroke="none" stroke-width="1"><g id="social" transform="translate(-573.000000, -738.000000)"><g id="slices" transform="translate(173.000000, 138.000000)"/><g fill="#FFFFFF" id="hexagon-black" transform="translate(173.000000, 138.000000)"><polygon id="Polygon-64" points="430 600 455.980762 615 455.980762 645 430 660 404.019238 645 404.019238 615 "/></g><g fill="#000000" id="icon" transform="translate(182.000000, 150.000000)"><path d="M409.307692,614.384615 C409.307692,620.757692 420.846154,635.663161 420.846154,635.258357 C420.846154,634.853553 432.384615,620.757692 432.384615,614.384615 C432.384615,608.011538 427.215385,602.846154 420.846154,602.846154 C414.476923,602.846154 409.307692,608.011538 409.307692,614.384615 Z M415.076923,613.230769 C415.076923,616.417308 417.661538,619 420.846154,619 C424.030769,619 426.615385,616.417308 426.615385,613.230769 C426.615385,610.044231 424.030769,607.461538 420.846154,607.461538 C417.661538,607.461538 415.076923,610.044231 415.076923,613.230769 Z" id="location"/></g></g></g></svg>
